<?xml version="1.0" encoding="UTF-8"?>
<svg version="1.1" xmlns="http://www.w3.org/2000/svg" width="36" height="36">
<path d="M0 0 C1.32 0 2.64 0 4 0 C3.56486181 5.43922743 2.60096721 8.84503784 -1 13 C-5.2777897 16.06369417 -9.56843578 17.65948233 -14.91796875 17.40625 C-18.17596565 16.77054329 -20.98742486 15.39500295 -23.921875 13.875 C-26.23861969 12.74129533 -26.23861969 12.74129533 -30 13 C-30.09765625 6.84765625 -30.09765625 6.84765625 -30 5 C-29 4 -29 4 -27.15234375 3.90234375 C-25.1015625 3.93489583 -23.05078125 3.96744792 -21 4 C-21 6 -21 8 -21 10 C-17.26976982 12.48682012 -13.32567388 12.65010128 -9 12 C-4.6241041 10.01846224 -2.79797357 8.13863765 -1.125 3.75 C-0.75375 2.5125 -0.3825 1.275 0 0 Z " fill="#FFFFFF" transform="translate(31,18)"/>
<path d="M0 0 C0.71671875 0.37125 1.4334375 0.7425 2.171875 1.125 C4.48861969 2.25870467 4.48861969 2.25870467 8.25 2 C8.34765625 8.15234375 8.34765625 8.15234375 8.25 10 C7.25 11 7.25 11 5.40234375 11.09765625 C3.3515625 11.06510417 1.30078125 11.03255208 -0.75 11 C-0.75 9 -0.75 7 -0.75 5 C-4.48023018 2.51317988 -8.42432612 2.34989872 -12.75 3 C-17.1258959 4.98153776 -18.95202643 6.86136235 -20.625 11.25 C-20.99625 12.4875 -21.3675 13.725 -21.75 15 C-23.07 15 -24.39 15 -25.75 15 C-25.31486181 9.56077257 -24.35096721 6.15496216 -20.75 2 C-13.98492506 -2.84505367 -7.48402146 -3.42966614 0 0 Z " fill="#FFFFFF" transform="translate(26.75,3)"/>
<path d="M0 0 C2 1 4 2 6 3 C6 4.32 6 5.64 6 7 C3.03 6.505 3.03 6.505 0 6 C-0.33 6.66 -0.66 7.32 -1 8 C0.423125 8.433125 0.423125 8.433125 1.875 8.875 C5 10 5 10 7 12 C7.4375 14.875 7.4375 14.875 7 18 C4.5 20.375 4.5 20.375 2 22 C-0.88437779 20.70700306 -2.87219421 19.34058637 -5 17 C-4.505 15.515 -4.505 15.515 -4 14 C-2.576875 14.495 -2.576875 14.495 -1.125 15 C1.77062452 16.10159191 1.77062452 16.10159191 4 16 C2.209733 14.02128384 0.76944428 12.87923272 -1.625 11.625 C-4 10 -4 10 -5.125 7.625 C-5 5 -5 5 -2.5625 2.1875 C-1.716875 1.465625 -0.87125 0.74375 0 0 Z " fill="#FFFFFF" transform="translate(17,7)"/>
</svg>
